<mxfile host="Electron" modified="2023-10-25T14:34:18.599Z" agent="Mozilla/5.0 (Macintosh; Intel Mac OS X 10_15_7) AppleWebKit/537.36 (KHTML, like Gecko) draw.io/22.0.2 Chrome/114.0.5735.289 Electron/25.8.4 Safari/537.36" etag="Fi862DNezFQYAo3xpJ6k" version="22.0.2" type="device">
  <diagram id="C5RBs43oDa-KdzZeNtuy" name="Page-1">
    <mxGraphModel dx="897" dy="674" grid="1" gridSize="10" guides="1" tooltips="1" connect="1" arrows="1" fold="1" page="1" pageScale="1" pageWidth="827" pageHeight="1169" math="0" shadow="0">
      <root>
        <mxCell id="WIyWlLk6GJQsqaUBKTNV-0" />
        <mxCell id="WIyWlLk6GJQsqaUBKTNV-1" parent="WIyWlLk6GJQsqaUBKTNV-0" />
        <mxCell id="RiFOUCmzKhMf9IndZ4AP-5" style="edgeStyle=orthogonalEdgeStyle;rounded=0;orthogonalLoop=1;jettySize=auto;html=1;exitX=1;exitY=0.5;exitDx=0;exitDy=0;entryX=0;entryY=0.5;entryDx=0;entryDy=0;" parent="WIyWlLk6GJQsqaUBKTNV-1" source="RiFOUCmzKhMf9IndZ4AP-6" target="RiFOUCmzKhMf9IndZ4AP-3" edge="1">
          <mxGeometry relative="1" as="geometry" />
        </mxCell>
        <mxCell id="RiFOUCmzKhMf9IndZ4AP-0" value="&lt;font style=&quot;font-size: 18px;&quot;&gt;Wallet origen&lt;/font&gt;" style="rounded=1;whiteSpace=wrap;html=1;" parent="WIyWlLk6GJQsqaUBKTNV-1" vertex="1">
          <mxGeometry x="40" y="180" width="120" height="60" as="geometry" />
        </mxCell>
        <mxCell id="RiFOUCmzKhMf9IndZ4AP-1" value="&lt;font style=&quot;font-size: 18px;&quot;&gt;Wallet destino&lt;/font&gt;" style="rounded=1;whiteSpace=wrap;html=1;" parent="WIyWlLk6GJQsqaUBKTNV-1" vertex="1">
          <mxGeometry x="504" y="440" width="120" height="60" as="geometry" />
        </mxCell>
        <mxCell id="RiFOUCmzKhMf9IndZ4AP-2" value="&lt;font style=&quot;font-size: 18px;&quot;&gt;Wallet nodo&lt;/font&gt;" style="rounded=1;whiteSpace=wrap;html=1;" parent="WIyWlLk6GJQsqaUBKTNV-1" vertex="1">
          <mxGeometry x="350" y="440" width="120" height="60" as="geometry" />
        </mxCell>
        <mxCell id="RiFOUCmzKhMf9IndZ4AP-12" style="edgeStyle=orthogonalEdgeStyle;rounded=0;orthogonalLoop=1;jettySize=auto;html=1;exitX=0.5;exitY=1;exitDx=0;exitDy=0;entryX=0.5;entryY=0;entryDx=0;entryDy=0;" parent="WIyWlLk6GJQsqaUBKTNV-1" source="RiFOUCmzKhMf9IndZ4AP-15" target="RiFOUCmzKhMf9IndZ4AP-1" edge="1">
          <mxGeometry relative="1" as="geometry" />
        </mxCell>
        <mxCell id="RiFOUCmzKhMf9IndZ4AP-13" style="edgeStyle=orthogonalEdgeStyle;rounded=0;orthogonalLoop=1;jettySize=auto;html=1;exitX=0.5;exitY=1;exitDx=0;exitDy=0;entryX=0.5;entryY=0;entryDx=0;entryDy=0;" parent="WIyWlLk6GJQsqaUBKTNV-1" source="RiFOUCmzKhMf9IndZ4AP-17" target="RiFOUCmzKhMf9IndZ4AP-2" edge="1">
          <mxGeometry relative="1" as="geometry" />
        </mxCell>
        <mxCell id="RiFOUCmzKhMf9IndZ4AP-3" value="&lt;font style=&quot;font-size: 18px;&quot;&gt;Nodo&lt;/font&gt;" style="shape=hexagon;perimeter=hexagonPerimeter2;whiteSpace=wrap;html=1;fixedSize=1;" parent="WIyWlLk6GJQsqaUBKTNV-1" vertex="1">
          <mxGeometry x="424" y="170" width="120" height="80" as="geometry" />
        </mxCell>
        <mxCell id="RiFOUCmzKhMf9IndZ4AP-7" value="" style="edgeStyle=orthogonalEdgeStyle;rounded=0;orthogonalLoop=1;jettySize=auto;html=1;exitX=1;exitY=0.5;exitDx=0;exitDy=0;entryX=0;entryY=0.5;entryDx=0;entryDy=0;" parent="WIyWlLk6GJQsqaUBKTNV-1" source="RiFOUCmzKhMf9IndZ4AP-0" target="RiFOUCmzKhMf9IndZ4AP-6" edge="1">
          <mxGeometry relative="1" as="geometry">
            <mxPoint x="164" y="210" as="sourcePoint" />
            <mxPoint x="434" y="210" as="targetPoint" />
          </mxGeometry>
        </mxCell>
        <mxCell id="RiFOUCmzKhMf9IndZ4AP-6" value="Petición de transacción con comisión" style="shape=process;whiteSpace=wrap;html=1;backgroundOutline=1;" parent="WIyWlLk6GJQsqaUBKTNV-1" vertex="1">
          <mxGeometry x="230" y="180" width="120" height="60" as="geometry" />
        </mxCell>
        <mxCell id="RiFOUCmzKhMf9IndZ4AP-8" value="&lt;font style=&quot;font-size: 18px;&quot;&gt;Red de nodos&lt;/font&gt;" style="ellipse;shape=cloud;whiteSpace=wrap;html=1;" parent="WIyWlLk6GJQsqaUBKTNV-1" vertex="1">
          <mxGeometry x="560" y="30" width="186" height="100" as="geometry" />
        </mxCell>
        <mxCell id="RiFOUCmzKhMf9IndZ4AP-9" style="edgeStyle=orthogonalEdgeStyle;rounded=0;orthogonalLoop=1;jettySize=auto;html=1;entryX=0.55;entryY=0.95;entryDx=0;entryDy=0;entryPerimeter=0;exitX=0.5;exitY=0;exitDx=0;exitDy=0;" parent="WIyWlLk6GJQsqaUBKTNV-1" source="RiFOUCmzKhMf9IndZ4AP-10" target="RiFOUCmzKhMf9IndZ4AP-8" edge="1">
          <mxGeometry relative="1" as="geometry">
            <mxPoint x="744" y="210" as="targetPoint" />
          </mxGeometry>
        </mxCell>
        <mxCell id="RiFOUCmzKhMf9IndZ4AP-11" value="" style="edgeStyle=orthogonalEdgeStyle;rounded=0;orthogonalLoop=1;jettySize=auto;html=1;entryX=0;entryY=0.5;entryDx=0;entryDy=0;" parent="WIyWlLk6GJQsqaUBKTNV-1" source="RiFOUCmzKhMf9IndZ4AP-3" target="RiFOUCmzKhMf9IndZ4AP-10" edge="1">
          <mxGeometry relative="1" as="geometry">
            <mxPoint x="544" y="210" as="sourcePoint" />
            <mxPoint x="772" y="212" as="targetPoint" />
          </mxGeometry>
        </mxCell>
        <mxCell id="RiFOUCmzKhMf9IndZ4AP-10" value="&lt;font style=&quot;font-size: 18px;&quot;&gt;Petición&lt;br&gt;Transacción&lt;br&gt;Comisión&lt;/font&gt;" style="shape=process;whiteSpace=wrap;html=1;backgroundOutline=1;" parent="WIyWlLk6GJQsqaUBKTNV-1" vertex="1">
          <mxGeometry x="580" y="165" width="166" height="90" as="geometry" />
        </mxCell>
        <mxCell id="RiFOUCmzKhMf9IndZ4AP-14" value="" style="edgeStyle=orthogonalEdgeStyle;rounded=0;orthogonalLoop=1;jettySize=auto;html=1;exitX=0.625;exitY=1;exitDx=0;exitDy=0;entryX=0.5;entryY=0;entryDx=0;entryDy=0;" parent="WIyWlLk6GJQsqaUBKTNV-1" source="RiFOUCmzKhMf9IndZ4AP-3" target="RiFOUCmzKhMf9IndZ4AP-15" edge="1">
          <mxGeometry relative="1" as="geometry">
            <mxPoint x="499" y="250" as="sourcePoint" />
            <mxPoint x="564" y="360" as="targetPoint" />
          </mxGeometry>
        </mxCell>
        <mxCell id="RiFOUCmzKhMf9IndZ4AP-15" value="Transacción" style="shape=process;whiteSpace=wrap;html=1;backgroundOutline=1;" parent="WIyWlLk6GJQsqaUBKTNV-1" vertex="1">
          <mxGeometry x="504" y="330" width="120" height="60" as="geometry" />
        </mxCell>
        <mxCell id="RiFOUCmzKhMf9IndZ4AP-16" value="" style="edgeStyle=orthogonalEdgeStyle;rounded=0;orthogonalLoop=1;jettySize=auto;html=1;exitX=0.375;exitY=1;exitDx=0;exitDy=0;entryX=0.5;entryY=0;entryDx=0;entryDy=0;" parent="WIyWlLk6GJQsqaUBKTNV-1" source="RiFOUCmzKhMf9IndZ4AP-3" target="RiFOUCmzKhMf9IndZ4AP-17" edge="1">
          <mxGeometry relative="1" as="geometry">
            <mxPoint x="469" y="250" as="sourcePoint" />
            <mxPoint x="404" y="360" as="targetPoint" />
          </mxGeometry>
        </mxCell>
        <mxCell id="RiFOUCmzKhMf9IndZ4AP-17" value="Comisión" style="shape=process;whiteSpace=wrap;html=1;backgroundOutline=1;" parent="WIyWlLk6GJQsqaUBKTNV-1" vertex="1">
          <mxGeometry x="350" y="330" width="120" height="60" as="geometry" />
        </mxCell>
      </root>
    </mxGraphModel>
  </diagram>
</mxfile>
